<?xml version="1.0" encoding="UTF-8"?><svg id="a" xmlns="http://www.w3.org/2000/svg" viewBox="0 0 560 560"><defs><style>.b,.c{fill:#f0f0f0;}.c{font-family:NeuePower-Ultra, Neue Power;font-size:60.25px;}.d{fill:none;stroke:#f0f0f0;stroke-miterlimit:10;}</style></defs><path class="b" d="M123.95,484.16H57.78L116.67,112.53h189.28c16.75,0,33.87,1.53,51.38,4.57,17.5,3.05,33.51,8.33,48.03,15.85,14.52,7.52,26.34,17.47,35.46,29.83,9.12,12.36,13.68,28.04,13.68,47.02,0,12.18-3.35,22.93-10.05,32.25-6.7,9.32-15.17,17.2-25.41,23.65-18.41,11.59-27.56,17.05-32.82,19.35-11.6,5.06-25.4,10.51-36.2,10.51l77.93-.58c4.95-.04,8.65,4.39,7.53,9.04l-43.07,180.15h-80.88l29.59-131.67H151.51l-27.56,131.67Zm52.33-298.54l-15.85,99.42h139.46c16.75,0,30.05-3.29,43.37-12.82,11.41-8.16,24.06-21.25,24.06-38.45s-4.55-29.46-15.52-36.8c-10.99-7.34-28.73-11.35-45.85-11.35H176.28Z"/><ellipse class="d" cx="480.33" cy="103.03" rx="42" ry="42.38"/><text class="c" transform="translate(458 123.28)"><tspan x="0" y="0">C</tspan></text></svg>